# xmcd
#
# Track frame offsets:
#	150
#	23727
#	44905
#	69077
#
# Disc length: 1138 seconds
#
# Revision: 2
# Processed by: cddbd v1.5.2PL0 Copyright (c) Steve Scherf et al.
# Submitted via: audiograbber 1.83.01
#
DISCID=2e047004
DTITLE=Mary J. Blige - Reminise
DYEAR=1993
DGENRE=R&B
TTITLE0=Reminise (Bad Boy Remix)
TTITLE1=Reminise (Pressure Point 12'')
TTITLE2=Reminise (Milky Mix)
TTITLE3=Leave a Message
EXTD=
EXTT0=
EXTT1=
EXTT2=
EXTT3=
PLAYORDER=
